<svg width="22" height="24" viewBox="0 0 22 24" fill="none" xmlns="http://www.w3.org/2000/svg">
<path d="M15.9916 5.61712C13.8318 5.61712 12.919 6.64777 11.4148 6.64777C9.87255 6.64777 8.6962 5.62462 6.82454 5.62462C4.99252 5.62462 3.0389 6.74312 1.79827 8.64853C0.0562468 11.3355 0.351941 16.396 3.17336 20.7072C4.18258 22.2505 5.53034 23.9813 7.29808 24H7.33022C8.86655 24 9.32295 22.994 11.4373 22.9822H11.4694C13.5521 22.9822 13.97 23.9941 15.4999 23.9941H15.532C17.2997 23.9754 18.7198 22.0576 19.729 20.5202C20.4554 19.4146 20.7254 18.8596 21.2825 17.6088C17.2012 16.0596 16.5455 10.2738 20.5818 8.05553C19.3498 6.51278 17.6185 5.61927 15.9863 5.61927L15.9916 5.61712Z" fill="#161616"/>
<path d="M15.5159 0C14.2303 0.0873156 12.7304 0.905832 11.8519 1.97451C11.0548 2.94302 10.3991 4.37971 10.6563 5.77301H10.7591C12.1283 5.77301 13.5296 4.9486 14.3481 3.89224C15.1367 2.88677 15.7345 1.46187 15.5159 0Z" fill="#161616"/>
</svg>
