<svg width="20" height="20" viewBox="0 0 20 20" fill="none" xmlns="http://www.w3.org/2000/svg">
<path fill-rule="evenodd" clip-rule="evenodd" d="M0.25 10C0.25 4.61704 4.61704 0.25 10 0.25C15.383 0.25 19.75 4.61704 19.75 10C19.75 15.383 15.383 19.75 10 19.75C4.61704 19.75 0.25 15.383 0.25 10ZM10 1.75C5.44546 1.75 1.75 5.44546 1.75 10C1.75 14.5545 5.44546 18.25 10 18.25C14.5545 18.25 18.25 14.5545 18.25 10C18.25 5.44546 14.5545 1.75 10 1.75Z" fill="#1E293B"/>
<path fill-rule="evenodd" clip-rule="evenodd" d="M4 7.75C4 7.33579 4.33579 7 4.75 7H15.25C15.6642 7 16 7.33579 16 7.75C16 8.16421 15.6642 8.5 15.25 8.5H4.75C4.33579 8.5 4 8.16421 4 7.75Z" fill="#1E293B"/>
<path fill-rule="evenodd" clip-rule="evenodd" d="M5.5 10.75C5.5 10.3358 5.83579 10 6.25 10H13.75C14.1642 10 14.5 10.3358 14.5 10.75C14.5 11.1642 14.1642 11.5 13.75 11.5H6.25C5.83579 11.5 5.5 11.1642 5.5 10.75Z" fill="#1E293B"/>
<path fill-rule="evenodd" clip-rule="evenodd" d="M7.75 13.75C7.75 13.3358 8.08579 13 8.5 13H11.5C11.9142 13 12.25 13.3358 12.25 13.75C12.25 14.1642 11.9142 14.5 11.5 14.5H8.5C8.08579 14.5 7.75 14.1642 7.75 13.75Z" fill="#1E293B"/>
</svg>
