<svg width="24" height="24" viewBox="0 0 24 24" fill="none" xmlns="http://www.w3.org/2000/svg">
<path d="M23.3175 9.83698C23.4576 10.6424 23.5273 11.4585 23.526 12.276C23.526 15.927 22.221 19.014 19.95 21.1035H19.953C17.967 22.938 15.237 24 12 24C8.8174 24 5.76516 22.7357 3.51472 20.4853C1.26428 18.2348 0 15.1826 0 12C0 8.81739 1.26428 5.76514 3.51472 3.5147C5.76516 1.26427 8.8174 -1.5418e-05 12 -1.5418e-05C14.9786 -0.0331863 17.8548 1.08571 20.028 3.12298L16.602 6.54898C15.3633 5.36886 13.7107 4.72246 12 4.74898C8.8695 4.74898 6.21 6.86098 5.262 9.70498C4.76024 11.1954 4.76024 12.8091 5.262 14.2995H5.2665C6.219 17.139 8.874 19.251 12.0045 19.251C13.6215 19.251 15.0105 18.837 16.0875 18.105H16.083C16.7085 17.6908 17.2435 17.1542 17.6558 16.5274C18.068 15.9007 18.3489 15.1968 18.4815 14.4585H12V9.83848L23.3175 9.83698Z" fill="#474747"/>
</svg>
