<svg width="25" height="24" viewBox="0 0 25 24" fill="none" xmlns="http://www.w3.org/2000/svg">
<path d="M7.5 18V17C7.5 14.2386 9.73858 12 12.5 12C15.2614 12 17.5 14.2386 17.5 17V18" stroke="#7D8588" stroke-width="1.5" stroke-linecap="round"/>
<path d="M12.5 12C14.1569 12 15.5 10.6569 15.5 9C15.5 7.34315 14.1569 6 12.5 6C10.8431 6 9.5 7.34315 9.5 9C9.5 10.6569 10.8431 12 12.5 12Z" stroke="#7D8588" stroke-width="1.5" stroke-linecap="round" stroke-linejoin="round"/>
<path d="M12.5 22C18.0228 22 22.5 17.5228 22.5 12C22.5 6.47715 18.0228 2 12.5 2C6.97715 2 2.5 6.47715 2.5 12C2.5 17.5228 6.97715 22 12.5 22Z" stroke="#7D8588" stroke-width="1.5"/>
</svg>
