<svg width="17" height="12" viewBox="0 0 17 12" fill="none" xmlns="http://www.w3.org/2000/svg">
<path d="M10.848 5.64321C10.848 4.53121 11.336 3.88921 12.166 3.88921C12.848 3.88921 13.305 4.35921 13.353 4.99721H14.5V4.88721C14.447 3.70021 13.476 2.88721 12.158 2.88721C10.554 2.88721 9.64 3.93721 9.64 5.63821V6.38521C9.64 8.08521 10.545 9.11521 12.158 9.11521C13.472 9.11521 14.443 8.32321 14.5 7.17621V7.06221H13.353C13.305 7.67721 12.856 8.11221 12.166 8.11221C11.327 8.11221 10.848 7.49221 10.848 6.38521V5.64321ZM4.957 9.00021L5.977 4.81621H6.022L7.042 9.00021H8.048L9.5 3.00121H8.318L7.498 7.35621H7.442L6.47 3.00121H5.53L4.558 7.35621H4.505L3.678 3.00121H2.5L3.952 9.00021H4.957Z" fill="#0066FF"/>
<path d="M14.5 1C14.7652 1 15.0196 1.10536 15.2071 1.29289C15.3946 1.48043 15.5 1.73478 15.5 2V10C15.5 10.2652 15.3946 10.5196 15.2071 10.7071C15.0196 10.8946 14.7652 11 14.5 11H2.5C2.23478 11 1.98043 10.8946 1.79289 10.7071C1.60536 10.5196 1.5 10.2652 1.5 10V2C1.5 1.73478 1.60536 1.48043 1.79289 1.29289C1.98043 1.10536 2.23478 1 2.5 1H14.5ZM2.5 0C1.96957 0 1.46086 0.210714 1.08579 0.585786C0.710714 0.960859 0.5 1.46957 0.5 2V10C0.5 10.5304 0.710714 11.0391 1.08579 11.4142C1.46086 11.7893 1.96957 12 2.5 12H14.5C15.0304 12 15.5391 11.7893 15.9142 11.4142C16.2893 11.0391 16.5 10.5304 16.5 10V2C16.5 1.46957 16.2893 0.960859 15.9142 0.585786C15.5391 0.210714 15.0304 0 14.5 0H2.5Z" fill="#0066FF"/>
</svg>
