<svg width="16" height="16" viewBox="0 0 16 16" fill="none" xmlns="http://www.w3.org/2000/svg">
<path d="M3.2 0H12.8C13.6487 0 14.4626 0.337142 15.0627 0.937258C15.6629 1.53737 16 2.35131 16 3.2V12.8C16 13.6487 15.6629 14.4626 15.0627 15.0627C14.4626 15.6629 13.6487 16 12.8 16H3.2C2.35131 16 1.53737 15.6629 0.937258 15.0627C0.337142 14.4626 0 13.6487 0 12.8V3.2C0 2.35131 0.337142 1.53737 0.937258 0.937258C1.53737 0.337142 2.35131 0 3.2 0Z" fill="#0066FF"/>
<path d="M10.0691 8.23917V7.61133L11.4526 6.50621C11.5587 6.41909 11.6505 6.34049 11.7282 6.27042C11.8058 6.20034 11.8664 6.12932 11.91 6.05735C11.9535 5.98538 11.9753 5.90584 11.9753 5.81871C11.9753 5.68235 11.9194 5.57724 11.8077 5.50337C11.696 5.42951 11.5605 5.39258 11.4015 5.39258C11.231 5.39258 11.0937 5.43424 10.9895 5.51758C10.8873 5.59902 10.8361 5.71739 10.8361 5.87269H9.99805C9.99805 5.50906 10.1306 5.22402 10.3958 5.01758C10.6609 4.80924 10.9999 4.70508 11.4128 4.70508C11.695 4.70508 11.9403 4.75432 12.1486 4.85281C12.3569 4.9494 12.5179 5.08103 12.6316 5.24769C12.7471 5.41436 12.8049 5.60091 12.8049 5.80735C12.8049 5.97402 12.7698 6.12932 12.6998 6.27326C12.6316 6.41531 12.5255 6.55546 12.3816 6.69371C12.2395 6.83008 12.0558 6.97307 11.8304 7.12269L11.3248 7.49769V7.52894H12.8446V8.23917H10.0691Z" fill="white"/>
<path d="M2.90527 5.33026H4.42232L6.02459 9.23935H6.09277L7.69505 5.33026H9.21209V11.1484H8.01891V7.36151H7.97061L6.46493 11.12H5.65243L4.14675 7.34731H4.09846V11.1484H2.90527V5.33026Z" fill="white"/>
</svg>
